<svg xmlns="http://www.w3.org/2000/svg" viewBox="0 0 800 130" width="100%" height="100%">
  <defs>
    <style>
      @import url('https://fonts.googleapis.com/css2?family=JetBrains+Mono:wght@500;700&amp;display=swap');
      
      .bg { fill: #0d0b0a; }

      .card-border {
        stroke: #f0ede6;
        stroke-width: 1.5;
        fill: #0d0b0a;
        rx: 6;
      }

      .card-title {
        font-family: 'JetBrains Mono', 'DM Mono', monospace;
        font-size: 13px;
        font-weight: 700;
        fill: #f0ede6;
      }

      .card-sub {
        font-family: 'JetBrains Mono', 'DM Mono', monospace;
        font-size: 11px;
        fill: #b4544a;
      }

      .icon-stroke {
        stroke: #f0ede6;
        stroke-width: 1.5;
        stroke-linecap: round;
        stroke-linejoin: round;
        fill: none;
      }

      .accent-dot {
        fill: #b4544a;
      }

      /* Animated Stagger Slide-Up for Cards */
      .pop1 { animation: popSlide 8s ease-out infinite; animation-delay: 0s; }
      .pop2 { animation: popSlide 8s ease-out infinite; animation-delay: 0.3s; }
      .pop3 { animation: popSlide 8s ease-out infinite; animation-delay: 0.6s; }
      .pop4 { animation: popSlide 8s ease-out infinite; animation-delay: 0.9s; }

      @keyframes popSlide {
        0% { opacity: 0; transform: translateY(12px); }
        10%, 85% { opacity: 1; transform: translateY(0); }
        95%, 100% { opacity: 0; transform: translateY(-8px); }
      }
    </style>
  </defs>

  <!-- Background -->
  <rect class="bg" width="800" height="130" rx="8" />

  <!-- Subtitle notification banner line -->
  <text x="400" y="22" font-family="'JetBrains Mono', monospace" font-size="11" fill="#f0ede6" opacity="0.5" text-anchor="middle" letter-spacing="3">// CONNECT &amp; DISCOVER</text>

  <!-- CARD 1: GitHub -->
  <g class="pop1" transform="translate(40, 36)">
    <rect class="card-border" width="160" height="72" />
    <circle cx="20" cy="20" class="accent-dot" r="3" />
    <!-- GitHub Pen Icon -->
    <path class="icon-stroke" d="M 32 38 C 32 28, 48 28, 48 38 C 48 48, 44 50, 40 52 C 36 50, 32 48, 32 38 Z M 36 50 L 36 54 M 44 50 L 44 54" />
    <text x="58" y="34" class="card-title">GitHub</text>
    <text x="58" y="52" class="card-sub">@vishvjeet</text>
  </g>

  <!-- CARD 2: LinkedIn -->
  <g class="pop2" transform="translate(225, 36)">
    <rect class="card-border" width="160" height="72" />
    <circle cx="20" cy="20" class="accent-dot" r="3" />
    <!-- LinkedIn Pen Icon -->
    <rect class="icon-stroke" x="30" y="30" width="20" height="22" rx="2" />
    <line x1="36" y1="36" x2="36" y2="46" class="icon-stroke" />
    <path class="icon-stroke" d="M 41 46 L 41 40 C 41 38, 45 38, 45 40 L 45 46" />
    <text x="58" y="34" class="card-title">LinkedIn</text>
    <text x="58" y="52" class="card-sub">/in/vishvjeet</text>
  </g>

  <!-- CARD 3: Portfolio -->
  <g class="pop3" transform="translate(410, 36)">
    <rect class="card-border" width="160" height="72" />
    <circle cx="20" cy="20" class="accent-dot" r="3" />
    <!-- Globe/Globe Pen Icon -->
    <circle cx="40" cy="41" r="11" class="icon-stroke" />
    <line x1="29" y1="41" x2="51" y2="41" class="icon-stroke" />
    <ellipse cx="40" cy="41" rx="5" ry="11" class="icon-stroke" />
    <text x="58" y="34" class="card-title">Portfolio</text>
    <text x="58" y="52" class="card-sub">vishvjeet.dev</text>
  </g>

  <!-- CARD 4: X / Email -->
  <g class="pop4" transform="translate(595, 36)">
    <rect class="card-border" width="165" height="72" />
    <circle cx="20" cy="20" class="accent-dot" r="3" />
    <!-- Mail Pen Icon -->
    <rect class="icon-stroke" x="28" y="32" width="22" height="16" rx="2" />
    <path class="icon-stroke" d="M 28 34 L 39 42 L 50 34" />
    <text x="58" y="34" class="card-title">Email</text>
    <text x="58" y="52" class="card-sub">contact@dev</text>
  </g>
</svg>
